<svg xmlns="http://www.w3.org/2000/svg" viewBox="0 0 2000 2000" shape-rendering="geometricPrecision">
  <defs>
    <pattern id="flowing-lines" patternUnits="userSpaceOnUse" width="2000" height="2000">
      <!-- Random curved lines with varying stroke widths -->
      <path d="M200,200 C400,600 800,600 1000,200 S1400,600 1800,200" stroke="#eaeaea" stroke-width="20" fill="none" shape-rendering="auto"/>
      <path d="M200,400 C400,800 800,800 1000,400 S1400,800 1800,400" stroke="#eaeaea" stroke-width="10" fill="none" shape-rendering="auto"/>
      <path d="M200,600 C400,1000 800,1000 1000,600 S1400,1000 1800,600" stroke="#eaeaea" stroke-width="20" fill="none" shape-rendering="auto"/>
      <path d="M200,800 C400,1200 800,1200 1000,800 S1400,1200 1800,800" stroke="#eaeaea" stroke-width="10" fill="none" shape-rendering="auto"/>
      <path d="M200,1000 C400,1400 800,1400 1000,1000 S1400,1400 1800,1000" stroke="#eaeaea" stroke-width="20" fill="none" shape-rendering="geometricPrecision"/>
      <path d="M200,1200 C400,1600 800,1600 1000,1200 S1400,1600 1800,1200" stroke="#eaeaea" stroke-width="10" fill="none" shape-rendering="geometricPrecision"/>
      <path d="M200,1400 C400,1800 800,1800 1000,1400 S1400,1800 1800,1400" stroke="#eaeaea" stroke-width="20" fill="none" shape-rendering="geometricPrecision"/>
      <path d="M200,1600 C400,2000 800,2000 1000,1600 S1400,2000 1800,1600" stroke="#eaeaea" stroke-width="10" fill="none" shape-rendering="geometricPrecision"/>
    </pattern>
  </defs>
  <rect width="2000" height="2000" fill="url(#flowing-lines)" />
</svg>