<svg xmlns="http://www.w3.org/2000/svg" viewBox="0 0 2000 2000" shape-rendering="geometricPrecision">
  <!-- Curved lines with increased amplitude -->
  <path d="M0,100 C500,-200 1500,400 2000,100" stroke="#eaeaea" stroke-width="18" fill="none" />
  <path d="M0,200 C500,-100 1500,500 2000,200" stroke="#eaeaea" stroke-width="12" fill="none" />
  <!-- <path d="M0,300 C500,0 1500,600 2000,300" stroke="#eaeaea" stroke-width="20" fill="none" /> -->
  <!-- <path d="M0,400 C500,100 1500,700 2000,400" stroke="#eaeaea" stroke-width="8" fill="none" /> -->
  <path d="M0,500 C500,200 1500,800 2000,500" stroke="#eaeaea" stroke-width="18" fill="none" />
  <path d="M0,600 C500,300 1500,900 2000,600" stroke="#eaeaea" stroke-width="11" fill="none" />
  <!-- <path d="M0,700 C500,400 1500,1000 2000,700" stroke="#eaeaea" stroke-width="21" fill="none" shape-rendering="geometricPrecision" />
  <path d="M0,800 C500,500 1500,1100 2000,800" stroke="#eaeaea" stroke-width="15" fill="none" shape-rendering="geometricPrecision" /> -->
  <!-- <path d="M0,900 C500,600 1500,1200 2000,900" stroke="#eaeaea" stroke-width="20" fill="none" shape-rendering="geometricPrecision" /> -->
  <!-- Additional lines with varying stroke widths -->
  <!-- <path d="M0,1000 C500,700 1500,1300 2000,1000" stroke="#eaeaea" stroke-width="15" fill="none" shape-rendering="geometricPrecision" /> -->
  <!-- <path d="M0,1100 C500,800 1500,1400 2000,1100" stroke="#eaeaea" stroke-width="22" fill="none" shape-rendering="geometricPrecision" /> -->
  <path d="M0,1200 C500,900 1500,1500 2000,1200" stroke="#eaeaea" stroke-width="7" fill="none" shape-rendering="geometricPrecision" />
  <path d="M0,1300 C500,1000 1500,1600 2000,1300" stroke="#eaeaea" stroke-width="18" fill="none" shape-rendering="geometricPrecision" />
  <path d="M0,1400 C500,1100 1500,1700 2000,1400" stroke="#eaeaea" stroke-width="13" fill="none" shape-rendering="geometricPrecision" />
</svg>